<svg version="1.2" xmlns="http://www.w3.org/2000/svg" viewBox="0 0 226 130" width="480" height="276">
	<title>logo_control_gastos-svg</title>
	<defs>
		<clipPath clipPathUnits="userSpaceOnUse" id="cp1">
			<path d="m49 29h74.39v110.45h-74.39z"/>
		</clipPath>
		<clipPath clipPathUnits="userSpaceOnUse" id="cp2">
			<path d="m8.19 6.25h91.81v118.75h-91.81z"/>
		</clipPath>
		<clipPath clipPathUnits="userSpaceOnUse" id="cp3">
			<path d="m47.12 34.16h49.8v91.2h-49.8z"/>
		</clipPath>
		<clipPath clipPathUnits="userSpaceOnUse" id="cp4">
			<path d="m48.11 40.18h47.65v75.88h-47.65z"/>
		</clipPath>
		<clipPath clipPathUnits="userSpaceOnUse" id="cp5">
			<path d="m48.95 59.04h46.19v32.96h-46.19z"/>
		</clipPath>
		<clipPath clipPathUnits="userSpaceOnUse" id="cp6">
			<path d="m70 72h25.14v24.24h-25.14z"/>
		</clipPath>
	</defs>
	<style>
		.s0 { fill: #ffffff } 
		.s1 { fill: #004aad } 
		.s2 { fill: #000000 } 
		.s3 { fill: #01cb58 } 
		.s4 { fill: #272626 } 
		.s5 { fill: #545454 } 
	</style>
	<path id="Layer" class="s0" d="m104.2 50c-1.4 13.3-5.6 26.3-12.4 37.9-6.6 11.5-15.5 21.4-26 29.3q0 0 0 0c21.4-16.9 34.3-38.3 38.4-67.2z"/>
	<g id="Clip-Path" clip-path="url(#cp1)">
		<g id="Layer">
		</g>
	</g>
	<g id="Clip-Path" clip-path="url(#cp2)">
		<g id="Layer">
			<path id="Layer" class="s1" d="m99.8 25.9v3.3c0 6.2-0.4 12.1-1 17.6 0 0-3.2 35.6-21.4 53.1 0 0 13.4-18.8 7-61.4l-18.6-10.7-38.4 22.2c1.4 13.3 5.6 26.2 12.3 37.9 5.6 9.7 12.9 18.4 21.4 25.6-4.3 3.3-9.2 6.6-14.4 9.7l-1.6 0.9c-23.3-21.5-36.9-52.1-36.9-84.6l57.6-33.3z"/>
		</g>
	</g>
	<g id="Clip-Path" clip-path="url(#cp3)">
		<g id="Layer">
			<path id="Layer" fill-rule="evenodd" class="s2" d="m92.7 34.2q0.1 0 0.3 0 0.3 0.1 0.5 0.1 0.4 0.1 0.7 0.2 0.3 0.1 0.7 0.3 0.3 0.2 0.6 0.5 0.3 0.3 0.5 0.6 0.3 0.4 0.4 0.7 0.2 0.4 0.3 0.8 0.1 0.3 0.1 0.6 0 0.1 0 0.3 0.2 41.5 0 82.9 0 0.2 0 0.4 0 0.2-0.1 0.5-0.1 0.4-0.2 0.7-0.2 0.4-0.4 0.7-0.3 0.3-0.5 0.6-0.3 0.3-0.7 0.5-0.3 0.2-0.6 0.4-0.3 0.1-0.7 0.2-0.3 0-0.6 0.1-0.1 0-0.3 0-20.7 0.1-41.4 0-0.1 0-0.3 0-0.3-0.1-0.5-0.1-0.4-0.1-0.7-0.2-0.4-0.2-0.8-0.5-0.3-0.2-0.6-0.5-0.3-0.3-0.5-0.6-0.2-0.3-0.3-0.6-0.2-0.4-0.2-0.7-0.1-0.3-0.1-0.6 0-0.1 0-0.3-0.2-41.4 0-82.9 0-0.2 0-0.3 0-0.3 0.1-0.6 0-0.3 0.2-0.7 0.1-0.3 0.4-0.7 0.2-0.3 0.4-0.6 0.3-0.2 0.7-0.5 0.3-0.2 0.6-0.3 0.4-0.2 0.8-0.3 0.3 0 0.5-0.1 0.2 0 0.3 0c13.8 0 27.6 0 41.4 0zm-19.4 83.2h-2.6c-1 0-1.8 0.8-1.8 1.8v2.6c0 1 0.8 1.8 1.8 1.8h2.6c1 0 1.8-0.8 1.8-1.8v-2.6c0-1-0.8-1.8-1.8-1.8zm-0.5 1.2c0.7 0 1.2 0.5 1.2 1.1v1.6c0 0.6-0.5 1.1-1.2 1.1h-1.6c-0.6 0-1.1-0.5-1.1-1.1v-1.6c0-0.6 0.5-1.1 1.1-1.1zm22.5-78.1h-46.6c0 25.2-0.1 50.3 0 75.4h46.6c0.1-25.1 0.1-50.2 0-75.4zm-15.1-3.8h-16.3c-0.2 0-0.4 0.1-0.4 0.3v0.7c0 0.2 0.2 0.3 0.4 0.3h16.3c0.2 0 0.3-0.1 0.3-0.3v-0.7c0-0.2-0.1-0.3-0.3-0.3z"/>
		</g>
	</g>
	<g id="Clip-Path" clip-path="url(#cp4)">
		<g id="Layer">
			<path id="Layer" class="s3" d="m48.1 40.2h47.8v75.9h-47.8z"/>
		</g>
	</g>
	<g id="Clip-Path" clip-path="url(#cp5)">
		<g id="Layer">
			<path id="Layer" fill-rule="evenodd" class="s0" d="m48.9 62.3c0-1.8 1.5-3.3 3.3-3.3h39.6c1.9 0 3.3 1.5 3.3 3.3v8.8h-2.2v-8.8c0-0.6-0.4-1.1-1.1-1.1h-39.6c-0.6 0-1.1 0.5-1.1 1.1v26.3c0 0.6 0.5 1.1 1.1 1.1h15.4v2.2h-15.4c-1.8 0-3.3-1.5-3.3-3.3z"/>
		</g>
	</g>
	<path id="Layer" fill-rule="evenodd" class="s0" d="m50 66.7h44v2.2h-44z"/>
	<path id="Layer" fill-rule="evenodd" class="s0" d="m55.5 82h11v2.2h-11z"/>
	<g id="Clip-Path" clip-path="url(#cp6)">
		<g id="Layer">
			<path id="Layer" fill-rule="evenodd" class="s0" d="m70.9 84.2c0-6.6 5.5-12 12.1-12 6.7 0 12.1 5.4 12.1 12 0 6.6-5.4 12-12.1 12-6.6 0-12.1-5.4-12.1-12zm12.1-9.8c-5.4 0-9.9 4.4-9.9 9.8 0 5.4 4.5 9.8 9.9 9.8 5.5 0 9.9-4.4 9.9-9.8 0-5.4-4.4-9.8-9.9-9.8z"/>
		</g>
	</g>
	<path id="Layer" fill-rule="evenodd" class="s0" d="m82.3 86.5l4.8-6.8 1.8 1.3-5.5 7.7c-0.2 0.2-0.4 0.4-0.7 0.4-0.3 0.1-0.6 0-0.9-0.2l-4.4-3.3 1.4-1.7z"/>
	<g id="Layer">
		<g id="Layer">
			<g id="Layer">
				<path id="Layer" class="s4" d="m111.7 47.4q0.8 0 1.6-0.2 0.9-0.3 1.2-0.6l0.4-0.2 1.6 3.2q-0.1 0-0.2 0.1-0.2 0.1-0.7 0.4-0.5 0.3-1.1 0.5-0.5 0.2-1.5 0.3-0.9 0.2-1.9 0.2-2.3 0-4.4-1.1-2-1.2-3.3-3.1-1.2-2-1.2-4.3 0-1.7 0.7-3.3 0.8-1.6 2-2.8 1.2-1.1 2.8-1.8 1.7-0.7 3.4-0.7 1.6 0 2.9 0.4 1.4 0.4 1.9 0.8l0.6 0.3-1.6 3.2q-0.1-0.1-0.4-0.2-0.3-0.2-1.1-0.5-0.9-0.3-1.7-0.3-1.4 0-2.5 0.5-1 0.4-1.7 1.1-0.6 0.7-0.9 1.6-0.4 0.8-0.4 1.7 0 1.8 1.5 3.3 1.4 1.5 4 1.5z"/>
			</g>
		</g>
	</g>
	<g id="Layer">
		<g id="Layer">
			<g id="Layer">
				<path id="Layer" fill-rule="evenodd" class="s4" d="m120.3 42.6q0-3.6 2.4-6.1 2.5-2.5 5.9-2.5 3.5 0 5.9 2.5 2.4 2.5 2.4 6.1 0 3.6-2.4 6-2.4 2.5-5.9 2.5-3.6 0-6-2.4-2.3-2.5-2.3-6.1zm4.1 0q0 1.3 0.4 2.3 0.4 1.1 1.3 1.8 1 0.8 2.5 0.8 2.1 0 3.2-1.5 1-1.4 1-3.4 0-2.1-1.1-3.5-1-1.5-3.1-1.5-2 0-3.1 1.5-1.1 1.4-1.1 3.5z"/>
			</g>
		</g>
	</g>
	<g id="Layer">
		<g id="Layer">
			<g id="Layer">
				<path id="Layer" class="s4" d="m145.4 40.6v10.2h-3.7v-16.5h3.7l6.6 10.2v-10.2h3.7v16.5h-3.7l-6.6-10.2z"/>
			</g>
		</g>
	</g>
	<g id="Layer">
		<g id="Layer">
			<g id="Layer">
				<path id="Layer" class="s4" d="m160.2 37.6v-3.3h11.6v3.3h-3.9v13.2h-3.8v-13.2z"/>
			</g>
		</g>
	</g>
	<g id="Layer">
		<g id="Layer">
			<g id="Layer">
				<path id="Layer" fill-rule="evenodd" class="s4" d="m176.2 34.3h5.9q2.4 0 3.9 1.3 1.5 1.3 1.5 3.6 0 1.8-0.9 3.1-0.9 1.2-2.5 1.7l5.7 6.8h-4.8l-5-6.5v6.5h-3.8zm3.8 7.3h0.4q0.5 0 0.9 0 0.4 0 0.8-0.1 0.5-0.2 0.8-0.4 0.2-0.2 0.4-0.6 0.2-0.5 0.2-1 0-0.6-0.2-1.1-0.2-0.4-0.4-0.6-0.3-0.2-0.8-0.3-0.4-0.2-0.8-0.2-0.4 0-0.9 0h-0.4z"/>
			</g>
		</g>
	</g>
	<g id="Layer">
		<g id="Layer">
			<g id="Layer">
				<path id="Layer" fill-rule="evenodd" class="s4" d="m192.9 42.6q0-3.6 2.4-6.1 2.5-2.5 5.9-2.5 3.5 0 5.9 2.5 2.4 2.5 2.4 6.1 0 3.6-2.4 6-2.4 2.5-5.9 2.5-3.6 0-6-2.4-2.3-2.5-2.3-6.1zm4.1 0q-0.1 1.3 0.3 2.3 0.4 1.1 1.4 1.8 1 0.8 2.5 0.8 2.1 0 3.2-1.5 1-1.4 1-3.4 0-2.1-1.1-3.5-1.1-1.5-3.1-1.5-2 0-3.2 1.5-1.1 1.4-1 3.5z"/>
			</g>
		</g>
	</g>
	<g id="Layer">
		<g id="Layer">
			<g id="Layer">
				<path id="Layer" class="s4" d="m218 34.3v13.2h5.6v3.3h-9.4v-16.5z"/>
			</g>
		</g>
	</g>
	<g id="Layer">
		<g id="Layer">
			<g id="Layer">
				<path id="Layer" fill-rule="evenodd" class="s4" d="m149.5 61.8h4.8q3.4 0 5.8 2.3 2.5 2.4 2.5 5.9 0 3.5-2.4 5.9-2.5 2.3-5.9 2.3h-4.8zm3.8 13.1h0.5q2.1 0 3.4-1.3 1.3-1.4 1.3-3.5 0-2.1-1.3-3.5-1.3-1.4-3.4-1.4h-0.5z"/>
			</g>
		</g>
	</g>
	<g id="Layer">
		<g id="Layer">
			<g id="Layer">
				<path id="Layer" class="s4" d="m176.8 61.8v3.3h-5.7v3.2h5.4v3.3h-5.4v3.3h5.7v3.3h-9.4v-16.4z"/>
			</g>
		</g>
	</g>
	<g id="Layer">
		<g id="Layer">
			<g id="Layer">
				<path id="Layer" class="s4" d="m127.1 96.4v3.6q-0.6 2.9-2.8 4.5-2.1 1.5-4.8 1.5-3.3 0-5.7-2.5-2.3-2.5-2.3-6.1 0-3.6 2.3-6 2.3-2.5 5.7-2.5 4 0 6.4 2.8l-2.5 2.7q-1.3-2.1-3.7-2.1-1.7 0-2.9 1.5-1.2 1.5-1.2 3.6 0 2.1 1.2 3.6 1.2 1.5 2.9 1.5 1.5 0 2.5-0.9 1.1-0.8 1.1-2.3h-3.8v-2.9z"/>
			</g>
		</g>
	</g>
	<g id="Layer">
		<g id="Layer">
			<g id="Layer">
				<path id="Layer" fill-rule="evenodd" class="s4" d="m140.3 89.2l6.6 16.5h-4l-1.3-3.3h-6.2l-1.2 3.3h-4.1l6.7-16.5zm0.1 9.9l-1.8-4.8h-0.1l-1.8 4.8z"/>
			</g>
		</g>
	</g>
	<g id="Layer">
		<g id="Layer">
			<g id="Layer">
				<path id="Layer" class="s4" d="m156.7 88.9q1.3 0 2.6 0.4 1.3 0.4 1.9 0.7l0.6 0.5-1.5 2.9q-0.2-0.1-0.5-0.3-0.3-0.1-1.2-0.5-0.9-0.3-1.6-0.3-1 0-1.5 0.4-0.5 0.4-0.5 1.1 0 0.3 0.2 0.6 0.3 0.3 0.9 0.6 0.5 0.4 1 0.6 0.4 0.2 1.3 0.6 1.6 0.6 2.8 1.8 1.1 1.2 1.1 2.6 0 1.5-0.5 2.5-0.5 1.1-1.4 1.7-0.9 0.6-2 0.9-1 0.3-2.3 0.3-1.1 0-2.1-0.3-1.1-0.2-1.8-0.5-0.7-0.3-1.2-0.7-0.6-0.3-0.8-0.5l-0.3-0.2 1.9-3.2q0.2 0.2 0.6 0.5 0.4 0.4 1.5 0.9 1.1 0.5 1.9 0.5 2.4 0 2.4-1.6 0-0.4-0.2-0.6-0.2-0.3-0.6-0.6-0.4-0.3-0.7-0.5-0.4-0.2-1.1-0.5-0.8-0.4-1.1-0.5-1.5-0.8-2.4-1.9-0.8-1.1-0.8-2.4 0-2.2 1.7-3.6 1.6-1.4 3.7-1.4z"/>
			</g>
		</g>
	</g>
	<g id="Layer">
		<g id="Layer">
			<g id="Layer">
				<path id="Layer" class="s4" d="m166.1 92.5v-3.3h11.6v3.3h-3.9v13.2h-3.8v-13.2z"/>
			</g>
		</g>
	</g>
	<g id="Layer">
		<g id="Layer">
			<g id="Layer">
				<path id="Layer" fill-rule="evenodd" class="s4" d="m181.4 97.4q0-3.6 2.5-6 2.4-2.5 5.8-2.5 3.5 0 5.9 2.5 2.4 2.4 2.4 6 0 3.6-2.4 6.1-2.3 2.5-5.9 2.5-3.6 0-5.9-2.5-2.4-2.4-2.4-6.1zm4.1 0q0 1.3 0.4 2.4 0.4 1 1.4 1.8 1 0.7 2.4 0.7 2.1 0 3.2-1.4 1-1.4 1-3.5 0-2-1-3.4-1.1-1.5-3.2-1.5-2 0-3.1 1.5-1.1 1.4-1.1 3.4z"/>
			</g>
		</g>
	</g>
	<g id="Layer">
		<g id="Layer">
			<g id="Layer">
				<path id="Layer" class="s4" d="m208.8 88.9q1.4 0 2.6 0.4 1.3 0.4 1.9 0.7l0.6 0.5-1.5 2.9q-0.2-0.1-0.5-0.3-0.3-0.1-1.2-0.5-0.9-0.3-1.6-0.3-1 0-1.5 0.4-0.5 0.4-0.5 1.1 0 0.3 0.3 0.6 0.2 0.3 0.8 0.6 0.6 0.4 1 0.6 0.4 0.2 1.4 0.6 1.6 0.6 2.7 1.8 1.1 1.2 1.1 2.6 0 1.5-0.5 2.5-0.5 1.1-1.4 1.7-0.9 0.6-2 0.9-1 0.3-2.3 0.3-1.1 0-2.1-0.3-1.1-0.2-1.8-0.5-0.6-0.3-1.2-0.7-0.6-0.3-0.8-0.5l-0.3-0.2 1.9-3.2q0.2 0.2 0.6 0.5 0.5 0.4 1.5 0.9 1.1 0.5 1.9 0.5 2.4 0 2.4-1.6 0-0.4-0.2-0.6-0.1-0.3-0.6-0.6-0.4-0.3-0.7-0.5-0.3-0.2-1.1-0.5-0.7-0.4-1.1-0.5-1.5-0.8-2.3-1.9-0.8-1.1-0.8-2.4 0-2.2 1.6-3.6 1.6-1.4 3.7-1.4z"/>
			</g>
		</g>
	</g>
	<g id="Layer">
		<g id="Layer">
			<g id="Layer">
				<path id="Layer" class="s5" d="m106.4 116.1v-1h3.2v1h-1.1v3.7h-1.1v-3.7z"/>
			</g>
		</g>
	</g>
	<g id="Layer">
		<g id="Layer">
			<g id="Layer">
				<path id="Layer" fill-rule="evenodd" class="s5" d="m115.4 115.1l1.8 4.7h-1.1l-0.3-1h-1.8l-0.3 1h-1.2l1.9-4.7zm0 2.8l-0.5-1.3-0.5 1.3z"/>
			</g>
		</g>
	</g>
	<g id="Layer">
		<g id="Layer">
			<g id="Layer">
				<path id="Layer" fill-rule="evenodd" class="s5" d="m120.5 115.1h1.6q0.7 0 1.1 0.4 0.4 0.4 0.4 1 0 0.5-0.2 0.9-0.3 0.3-0.7 0.4l1.6 2h-1.4l-1.4-1.9v1.9h-1zm1 2c0.1 0 0.3 0 0.4 0q0.1 0 0.2 0 0.2-0.1 0.2-0.1 0.1-0.1 0.2-0.2 0-0.1 0-0.3 0-0.2 0-0.3-0.1-0.1-0.2-0.2 0 0-0.2-0.1-0.1 0-0.2 0-0.1 0-0.2 0h-0.2z"/>
			</g>
		</g>
	</g>
	<g id="Layer">
		<g id="Layer">
			<g id="Layer">
				<path id="Layer" class="s5" d="m129.6 115.1v3.4q0 0.6-0.4 1-0.4 0.3-1.1 0.3-0.2 0-0.3 0-0.2 0-0.3-0.1-0.2-0.1-0.3-0.2-0.1 0-0.1-0.1l0.3-0.9q0.3 0.3 0.6 0.3 0.2 0 0.4-0.1 0.1-0.2 0.1-0.5v-3.1z"/>
			</g>
		</g>
	</g>
	<g id="Layer">
		<g id="Layer">
			<g id="Layer">
				<path id="Layer" class="s5" d="m135.9 115.1v1h-1.6v0.9h1.5v0.9h-1.5v0.9h1.6v1h-2.7v-4.7z"/>
			</g>
		</g>
	</g>
	<g id="Layer">
		<g id="Layer">
			<g id="Layer">
				<path id="Layer" class="s5" d="m139.3 116.1v-1h3.2v1h-1.1v3.7h-1v-3.7z"/>
			</g>
		</g>
	</g>
	<g id="Layer">
		<g id="Layer">
			<g id="Layer">
				<path id="Layer" fill-rule="evenodd" class="s5" d="m148.3 115.1l1.9 4.7h-1.2l-0.3-1h-1.8l-0.3 1h-1.1l1.8-4.7zm0.1 2.8l-0.5-1.3-0.6 1.3z"/>
			</g>
		</g>
	</g>
	<g id="Layer">
		<g id="Layer">
			<g id="Layer">
			</g>
		</g>
	</g>
	<g id="Layer">
		<g id="Layer">
			<g id="Layer">
				<path id="Layer" fill-rule="evenodd" class="s5" d="m158 115.1h1.4q0.9 0 1.6 0.7 0.7 0.7 0.7 1.7 0 0.9-0.7 1.6-0.7 0.7-1.6 0.7h-1.4zm1.1 3.6h0.1q0.6 0 1-0.4 0.3-0.4 0.3-0.9 0-0.6-0.3-1-0.4-0.4-1-0.4h-0.1z"/>
			</g>
		</g>
	</g>
	<g id="Layer">
		<g id="Layer">
			<g id="Layer">
				<path id="Layer" class="s5" d="m167.8 115.1v1h-1.5v0.9h1.5v0.9h-1.5v0.9h1.5v1h-2.6v-4.7z"/>
			</g>
		</g>
	</g>
	<g id="Layer">
		<g id="Layer">
			<g id="Layer">
			</g>
		</g>
	</g>
	<g id="Layer">
		<g id="Layer">
			<g id="Layer">
				<path id="Layer" class="s5" d="m178.6 118.8q0.2 0 0.4-0.1 0.3 0 0.4-0.1l0.1-0.1 0.4 0.9q0 0 0 0.1-0.1 0-0.2 0.1-0.2 0-0.3 0.1-0.2 0-0.5 0.1-0.2 0-0.5 0-0.6 0-1.2-0.3-0.6-0.3-0.9-0.8-0.4-0.6-0.4-1.2 0-0.5 0.2-1 0.2-0.4 0.6-0.7 0.3-0.4 0.8-0.5 0.4-0.2 0.9-0.2 0.4 0 0.8 0.1 0.4 0.1 0.6 0.2l0.1 0.1-0.4 0.9q-0.1-0.1-0.1-0.1-0.1 0-0.4-0.1-0.2-0.1-0.4-0.1-0.4 0-0.7 0.1-0.3 0.1-0.5 0.3-0.2 0.3-0.3 0.5 0 0.2 0 0.5 0 0.5 0.3 0.9 0.4 0.4 1.2 0.4z"/>
			</g>
		</g>
	</g>
	<g id="Layer">
		<g id="Layer">
			<g id="Layer">
				<path id="Layer" fill-rule="evenodd" class="s5" d="m183.4 115.1h1.6q0.7 0 1.1 0.4 0.4 0.4 0.4 1 0 0.5-0.2 0.9-0.3 0.3-0.7 0.4l1.6 2h-1.4l-1.3-1.9v1.9h-1.1zm1.1 2c0.1 0 0.3 0 0.3 0q0.1 0 0.2 0 0.2-0.1 0.3-0.1 0-0.1 0.1-0.2 0-0.1 0-0.3 0-0.2 0-0.3-0.1-0.1-0.1-0.2-0.1 0-0.3-0.1-0.1 0-0.2 0-0.1 0-0.2 0h-0.1z"/>
			</g>
		</g>
	</g>
	<g id="Layer">
		<g id="Layer">
			<g id="Layer">
				<path id="Layer" class="s5" d="m191.1 114.3l1.1-1 0.5 0.7-1.3 0.7zm2 0.9v0.9h-1.6v0.9h1.6v0.9h-1.6v1h1.6v0.9h-2.6v-4.6z"/>
			</g>
		</g>
	</g>
	<g id="Layer">
		<g id="Layer">
			<g id="Layer">
				<path id="Layer" fill-rule="evenodd" class="s5" d="m196.8 115.1h1.3q1 0 1.6 0.7 0.7 0.7 0.7 1.7 0 0.9-0.6 1.6-0.7 0.7-1.7 0.7h-1.3zm1 3.6h0.2q0.6 0 0.9-0.4 0.4-0.4 0.4-0.9 0-0.6-0.4-1-0.3-0.4-0.9-0.4h-0.2z"/>
			</g>
		</g>
	</g>
	<g id="Layer">
		<g id="Layer">
			<g id="Layer">
				<path id="Layer" class="s5" d="m205 115.1v4.7h-1v-4.7z"/>
			</g>
		</g>
	</g>
	<g id="Layer">
		<g id="Layer">
			<g id="Layer">
				<path id="Layer" class="s5" d="m208.5 116.1v-1h3.2v1h-1.1v3.7h-1v-3.7z"/>
			</g>
		</g>
	</g>
	<g id="Layer">
		<g id="Layer">
			<g id="Layer">
				<path id="Layer" fill-rule="evenodd" class="s5" d="m215 117.5q0-1 0.6-1.7 0.7-0.7 1.7-0.7 0.9 0 1.6 0.7 0.7 0.6 0.7 1.7 0 1-0.7 1.6-0.6 0.7-1.6 0.7-1 0-1.7-0.6-0.6-0.7-0.6-1.7zm1.1 0q0 0.3 0.1 0.6 0.1 0.3 0.4 0.5 0.3 0.2 0.7 0.2 0.6 0 0.9-0.4 0.3-0.4 0.3-0.9 0-0.6-0.3-1-0.3-0.4-0.9-0.4-0.6 0-0.9 0.4-0.3 0.4-0.3 1z"/>
			</g>
		</g>
	</g>
</svg>